<?xml version="1.0" encoding="utf-8"?>
<!-- Generator: Adobe Illustrator 21.1.0, SVG Export Plug-In . SVG Version: 6.00 Build 0)  -->
<svg version="1.1" id="Layer_1" xmlns="http://www.w3.org/2000/svg" xmlns:xlink="http://www.w3.org/1999/xlink" x="0px" y="0px"
	 viewBox="0 0 494.2 249.3" style="enable-background:new 0 0 494.2 249.3;" xml:space="preserve">
<style type="text/css">
	.st0{fill:#FFFFFF;}
	.st1{fill:#3DAE63;}
</style>
<g>
	<path class="st0" d="M151.3,176c-0.9,0-1.7-0.8-2.1-1.6l-11.4-28.3h-5.3v28.3c0,0.8-0.7,1.6-1.6,1.6h-13.8c-0.8,0-1.6-0.8-1.6-1.6
		V96.7c0-0.9,0.8-1.6,1.6-1.6h36.9c1,0,2.2,0.3,3,1.2l6.6,6.6c1.4,1.4,1.2,2.3,1.2,3.2v29.2c0,1.5-0.2,2.1-1.2,3l-7,6.8l11.8,29.2
		c0.3,0.8,0,1.6-1.2,1.6H151.3z M147.3,127c0.2-0.2,0.3-0.6,0.3-0.9v-10.5c0-0.6,0-0.8-0.3-1.2l-1.7-1.7c-0.5-0.5-0.9-0.5-1.5-0.5
		h-11.6v17h12.2c0.2,0,0.5,0,0.8-0.3L147.3,127z"/>
	<path class="st0" d="M222.3,176c-0.9,0-1.9-0.8-2.1-1.6l-2.8-9.4h-23.3l-2.8,9.4c-0.2,0.8-1.2,1.6-2.1,1.6h-13.2
		c-1.5,0-2-0.8-1.7-1.6l22.9-77.6c0.3-1,0.8-1.6,1.6-1.6h13.8c0.8,0,1.3,0.6,1.6,1.7l22.9,77.5c0.2,0.8-0.5,1.6-1.7,1.6H222.3z
		 M205.8,125.6l-7.1,23.8h14L205.8,125.6z"/>
	<path class="st0" d="M242.3,176c-0.9,0-1.6-0.7-1.6-1.6V96.7c0-0.9,0.7-1.6,1.6-1.6h13.8c0.9,0,1.6,0.7,1.6,1.6v77.6
		c0,0.9-0.7,1.6-1.6,1.6H242.3z"/>
	<path class="st0" d="M268.2,176c-0.9,0-1.7-0.7-1.7-1.6v-78c0-0.7,0.9-1.3,1.7-1.3h13.7c0.8,0,1.6,0.6,1.6,1.3V159h31.1
		c0.9,0,1.7,0.8,1.7,1.6v13.8c0,0.9-0.8,1.6-1.7,1.6H268.2z"/>
	<path class="st0" d="M361.4,176c-0.8,0-1.4-0.7-1.6-1.6l-8.1-29.2l-0.8-5.8l-0.7,5.8l-9,29.2c-0.3,1-0.8,1.6-1.7,1.6h-14.5
		c-0.8,0-1.5-1-1.5-1.7l-6.1-77.5c-0.1-0.8,0.7-1.6,1.6-1.6h13.7c0.9,0,1.7,0.8,1.7,1.6l2.8,39.5l6.6-18.3c0.3-0.8,1.2-1.6,2.1-1.6
		h9.3c0.9,0,1.9,0.7,2.2,1.6l6.5,18.3l2.9-39.5c0-0.8,0.7-1.6,1.6-1.6H382c0.8,0,1.7,0.8,1.6,1.6l-6.3,77.6c0,0.7-0.5,1.6-1.7,1.6
		H361.4z"/>
	<path class="st0" d="M431.3,176c-0.9,0-1.9-0.8-2.1-1.6l-2.8-9.4h-23.3l-2.8,9.4c-0.2,0.8-1.2,1.6-2.1,1.6H385
		c-1.5,0-2-0.8-1.7-1.6l22.9-77.6c0.3-1,0.8-1.6,1.6-1.6h13.8c0.8,0,1.3,0.6,1.6,1.7l22.9,77.5c0.2,0.8-0.5,1.6-1.7,1.6H431.3z
		 M414.8,125.6l-7.1,23.8h14L414.8,125.6z"/>
	<path class="st0" d="M456.9,176c-0.8,0-1.6-0.7-1.6-1.6v-35.6l-21.6-41.5c-0.6-1,0.1-2.2,1.5-2.2h15c0.9,0,1.7,0.8,2.1,1.6
		l11.6,22.9l11.6-22.9c0.3-0.8,1.2-1.6,2.1-1.6h14.9c1.4,0,2.1,1.2,1.5,2.2l-21.6,41.5v35.6c0,0.9-0.8,1.6-1.6,1.6H456.9z"/>
</g>
<g>
	<path class="st0" d="M191,248.3c-1,1-2.1,0.9-2.2,0.9h-21.6c-0.9,0-1.7-0.4-2.2-0.9l-4.7-4.7c-1-1-0.9-1.4-0.9-2.2v-42.7
		c0-1,0.2-1.5,0.9-2.2l4.7-4.7c0.5-0.5,0.9-0.9,2.2-0.9h21.6c0.7,0,1.2,0,2.2,0.9l4.7,4.7c0.9,1,0.9,1.5,0.9,2.2v8.9
		c0,0.6-0.6,1.2-1.3,1.2h-9.8c-0.7,0-1.2-0.6-1.2-1.2v-2.2c0-0.2,0-0.3-0.2-0.6l-1.4-1.4c-0.2-0.2-0.4-0.2-0.6-0.2H174
		c-0.2,0-0.3,0-0.6,0.2l-1.3,1.4c-0.2,0.3-0.3,0.5-0.3,0.8v29.4c0,0.2,0.1,0.4,0.3,0.7l1.1,1.2h9.8l1.2-1.2c0.2-0.2,0.2-0.4,0.2-0.6
		v-7.3h-5.5c-0.7,0-1.2-0.6-1.2-1.2v-9.9c0-0.7,0.5-1.2,1.2-1.2h16.5c0.7,0,1.3,0.5,1.3,1.2v25.2c0,0.7-0.4,1.2-0.9,1.7L191,248.3z"
		/>
	<path class="st0" d="M227.8,249.2c-0.7,0-1.3-0.6-1.5-1.2l-8.2-20.3h-3.8V248c0,0.6-0.5,1.2-1.2,1.2h-9.9c-0.6,0-1.2-0.6-1.2-1.2
		v-55.9c0-0.7,0.6-1.2,1.2-1.2h26.5c0.8,0,1.6,0.2,2.2,0.8l4.8,4.8c1,1,0.8,1.7,0.8,2.3v21c0,1.1-0.2,1.5-0.8,2.2l-5,4.9l8.5,21
		c0.2,0.6,0,1.2-0.8,1.2H227.8z M225,213.9c0.2-0.2,0.2-0.4,0.2-0.7v-7.6c0-0.4,0-0.6-0.2-0.8l-1.3-1.3c-0.3-0.3-0.7-0.3-1.1-0.3
		h-8.3v12.3h8.8c0.2,0,0.3,0,0.6-0.2L225,213.9z"/>
	<path class="st0" d="M244.3,249.2c-0.7,0-1.2-0.5-1.2-1.2v-55.9c0-0.7,0.5-1.2,1.2-1.2h30.3c0.6,0,1.2,0.5,1.2,1.2v9.9
		c0,0.7-0.6,1.2-1.2,1.2h-19.3v10.7h14.8c0.7,0,1.2,0.5,1.2,1.2v9.9c0,0.7-0.5,1.2-1.2,1.2h-14.8v10.8h19.3c0.6,0,1.2,0.5,1.2,1.2
		v9.9c0,0.7-0.6,1.2-1.2,1.2H244.3z"/>
	<path class="st0" d="M280.9,249.2c-0.7,0-1.2-0.5-1.2-1.2v-55.9c0-0.7,0.5-1.2,1.2-1.2h30.3c0.6,0,1.2,0.5,1.2,1.2v9.9
		c0,0.7-0.6,1.2-1.2,1.2H292v10.7h14.8c0.7,0,1.2,0.5,1.2,1.2v9.9c0,0.7-0.5,1.2-1.2,1.2H292v10.8h19.3c0.6,0,1.2,0.5,1.2,1.2v9.9
		c0,0.7-0.6,1.2-1.2,1.2H280.9z"/>
	<path class="st0" d="M340.3,249.2c-0.7,0-1.2-0.6-1.5-1.2l-10.2-27.9V248c0,0.6-0.6,1.2-1.2,1.2h-9.9c-0.7,0-1.2-0.6-1.2-1.2v-55.9
		c0-0.7,0.5-1.2,1.2-1.2h12.2c0.6,0,1,0.4,1.2,1.2l11,32l0.4,0.9v-32.9c0-0.7,0.6-1.2,1.2-1.2h9.9c0.7,0,1.2,0.5,1.2,1.2V248
		c0,0.6-0.5,1.2-1.2,1.2H340.3z"/>
	<path class="st0" d="M389.9,249.2c-0.6,0-1-0.5-1.2-1.2l-5.8-21l-0.6-4.2l-0.5,4.2l-6.5,21c-0.2,0.8-0.6,1.2-1.2,1.2h-10.4
		c-0.6,0-1.1-0.8-1.1-1.2l-4.4-55.8c-0.1-0.6,0.5-1.2,1.2-1.2h9.8c0.7,0,1.2,0.6,1.2,1.2l2,28.4l4.8-13.2c0.2-0.6,0.8-1.2,1.5-1.2
		h6.7c0.7,0,1.3,0.5,1.6,1.2l4.7,13.2l2.1-28.4c0-0.6,0.5-1.2,1.2-1.2h9.9c0.6,0,1.3,0.6,1.2,1.2l-4.5,55.9c0,0.5-0.3,1.2-1.2,1.2
		H389.9z"/>
	<path class="st0" d="M440.1,249.2c-0.7,0-1.3-0.6-1.5-1.2l-2-6.8h-16.8l-2,6.8c-0.2,0.6-0.8,1.2-1.5,1.2h-9.5
		c-1.1,0-1.4-0.6-1.2-1.2l16.5-55.9c0.2-0.8,0.6-1.2,1.2-1.2h9.9c0.6,0,0.9,0.4,1.2,1.2l16.5,55.8c0.2,0.6-0.3,1.2-1.3,1.2H440.1z
		 M428.3,212.9l-5.1,17.1h10.1L428.3,212.9z"/>
	<path class="st0" d="M458.6,249.2c-0.6,0-1.2-0.5-1.2-1.2v-25.6l-15.5-29.8c-0.4-0.8,0.1-1.6,1.1-1.6h10.8c0.7,0,1.2,0.6,1.5,1.2
		l8.3,16.5l8.3-16.5c0.2-0.6,0.8-1.2,1.5-1.2h10.8c1,0,1.5,0.8,1.1,1.6l-15.5,29.8V248c0,0.7-0.6,1.2-1.2,1.2H458.6z"/>
</g>
<g>
	<path class="st1" d="M72.5,42.9c-7.3,0.9-10.5,5.7-11,10.9c-2.4,0.2-4.4,0.8-6,1.8C53,44.8,53,33.8,54,30.5
		c4.9,3.7,11.3,4,18.5-1.7c8.8-7.1,12.3-28.7,12.3-28.7S63-1.2,54.2,5.9c-7.8,6.2-8.4,13.2-5,19.1c-3,8.6-2.1,19.1-1.1,25.6
		c-2.3-2.8-4.6-4.7-5.7-5.4c-0.2-6.6-4.3-12.1-14-13.3C17.4,30.6,0,43,0,43S14,59,25,60.3c8.9,1,14.1-2.6,16.2-8.2
		c18.2,17.5,2.1,45.6,2.1,45.6h9c0,0,7.9-18.2,4.6-30.2c-2-5.6,2.9-7.3,5.3-7.5c1.6,4.3,5.7,6.5,13,5.7c8.8-1.1,20.3-11.5,20.3-11.5
		S81.3,41.8,72.5,42.9z M58.4,14.7c6.1-5.5,17.8-10,17.8-10s-10,6.4-16.1,11.9c-4,3.7-7.3,7.4-7.3,7.4
		C53.1,21.9,54.4,18.4,58.4,14.7z M29,43.9c-7.9-1.4-19.5-1.5-19.5-1.5s12-2.4,19.9-0.9c5.2,1,8.1,3.2,9.4,4.8
		C38.9,46.2,34.2,44.9,29,43.9z M72.2,53.8c-6.3,1.2-8.6,3.2-8.6,3.2c-0.1-0.6,2-4.1,8.3-5.2c6.3-1.2,16,0.7,16,0.7
		S78.5,52.6,72.2,53.8z"/>
</g>
<g>
	<path class="st0" d="M121,218c-0.3,0-0.5-0.2-0.5-0.5V197h-4.8c-0.3,0-0.6-0.2-0.6-0.5V192c0-0.3,0.3-0.6,0.6-0.6h15.3
		c0.3,0,0.6,0.3,0.6,0.6v4.5c0,0.3-0.3,0.5-0.6,0.5h-4.8v20.6c0,0.3-0.3,0.5-0.5,0.5H121z"/>
	<path class="st0" d="M147.3,217.6c-0.3,0.3-0.6,0.4-0.9,0.4h-10c-0.4,0-0.6-0.1-1-0.4l-2.1-2.1c-0.3-0.3-0.4-0.6-0.4-1V195
		c0-0.3,0.2-0.7,0.4-1l2.1-2.1c0.3-0.3,0.7-0.4,1-0.4h9.8c0.4,0,0.5,0,1,0.4l2.2,2.1c0.2,0.2,0.4,0.5,0.4,1v19.5
		c0,0.2-0.1,0.7-0.4,1L147.3,217.6z M144.1,211.9c0.1-0.1,0.1-0.2,0.1-0.3V198c0-0.1,0-0.2-0.1-0.3l-0.6-0.6
		c-0.1-0.1-0.2-0.1-0.3-0.1h-3.7c-0.1,0-0.2,0-0.3,0.1l-0.6,0.6c-0.1,0.1-0.1,0.2-0.1,0.3v13.6c0,0.1,0,0.2,0.1,0.3l0.5,0.5h4.4
		L144.1,211.9z"/>
	<rect x="115.4" y="223.8" class="st1" width="33.8" height="5.5"/>
</g>
<path class="st1" d="M92.1,111.1c1.9,0,3.4-1.5,3.4-3.4l0,0v-9.6c0-1.9-1.5-3.4-3.4-3.4l0,0h-5v-7.8H67.9v7.8H27.5v-7.8H8.4v7.8h-5
	c-1.9,0-3.4,1.5-3.4,3.4l0,0v9.6c0,1.9,1.5,3.4,3.4,3.4l0,0h5v16.3h-5c-1.9,0-3.4,1.5-3.4,3.4l0,0v9.6c0,1.8,1.5,3.3,3.4,3.3h5v15.9
	h-5c-1.9,0-3.4,1.5-3.4,3.4v9.6c0,1.9,1.5,3.4,3.4,3.4h5v16.3h-5c-1.9,0-3.4,1.5-3.4,3.4v9.6c0,1.9,1.5,3.4,3.4,3.4l0,0h5v16.3h-5
	c-1.9,0-3.4,1.5-3.4,3.3v9.6c0,1.9,1.5,3.4,3.4,3.4l0,0h5v8.2h19.1v-8.2h40.4v8.2H87v-8.2h5c1.9,0,3.4-1.5,3.4-3.4l0,0v-9.6
	c0-1.9-1.5-3.4-3.4-3.4l0,0h-5v-16.3h5c1.9,0,3.4-1.5,3.4-3.4l0,0v-9.6c0-1.9-1.5-3.4-3.4-3.4l0,0h-5v-16.3h5c1.9,0,3.4-1.5,3.4-3.3
	V163c0-1.9-1.5-3.4-3.4-3.4l0,0h-5v-15.9h5c1.9,0,3.4-1.5,3.4-3.4l0,0v-9.6c0-1.9-1.5-3.4-3.4-3.4l0,0h-5v-16.3H92.1z M67.9,224.8
	H27.5v-16.3h40.4V224.8z M67.9,192.2H27.5v-16.3h40.4V192.2z M67.9,159.6H27.5v-15.9h40.4V159.6z M67.9,127.4H27.5v-16.3h40.4V127.4
	z"/>
</svg>
