<?xml version="1.0" encoding="UTF-8" standalone="no"?>
<svg
   xmlns:dc="http://purl.org/dc/elements/1.1/"
   xmlns:cc="http://creativecommons.org/ns#"
   xmlns:rdf="http://www.w3.org/1999/02/22-rdf-syntax-ns#"
   xmlns:svg="http://www.w3.org/2000/svg"
   xmlns="http://www.w3.org/2000/svg"
   xmlns:sodipodi="http://sodipodi.sourceforge.net/DTD/sodipodi-0.dtd"
   xmlns:inkscape="http://www.inkscape.org/namespaces/inkscape"
   id="Ebene_1"
   data-name="Ebene 1"
   viewBox="0 0 116.88 116.88"
   version="1.1"
   sodipodi:docname="picnic.svg"
   inkscape:version="0.92.3 (2405546, 2018-03-11)">
  <metadata
     id="metadata4556">
    <rdf:RDF>
      <cc:Work
         rdf:about="">
        <dc:format>image/svg+xml</dc:format>
        <dc:type
           rdf:resource="http://purl.org/dc/dcmitype/StillImage" />
      </cc:Work>
    </rdf:RDF>
  </metadata>
  <sodipodi:namedview
     pagecolor="#ffffff"
     bordercolor="#666666"
     borderopacity="1"
     objecttolerance="10"
     gridtolerance="10"
     guidetolerance="10"
     inkscape:pageopacity="0"
     inkscape:pageshadow="2"
     inkscape:window-width="1920"
     inkscape:window-height="1001"
     id="namedview4554"
     showgrid="false"
     inkscape:zoom="4.8882811"
     inkscape:cx="70.714038"
     inkscape:cy="53.655638"
     inkscape:window-x="-9"
     inkscape:window-y="-9"
     inkscape:window-maximized="1"
     inkscape:current-layer="Ebene_1" />
  <defs
     id="defs4543">
    <style
       id="style4538">.cls-1{fill:none;}.cls-2{clip-path:url(#clip-path);}.cls-3{fill:#f6f6f6;}</style>
    <clipPath
       id="clip-path"
       transform="translate(0.15 0.01)">
      <circle
         class="cls-1"
         cx="58.36"
         cy="58.36"
         r="58.36"
         id="circle4540" />
    </clipPath>
  </defs>
  <title
     id="title4545">A</title>
  <text
     xml:space="preserve"
     style="font-style:normal;font-weight:normal;font-size:97.23817444px;line-height:1.25;font-family:sans-serif;letter-spacing:0px;word-spacing:0px;fill:#ffffff;fill-opacity:1;stroke:none;stroke-width:2.43095446"
     x="25.524647"
     y="95.305084"
     id="text4568"
     transform="scale(1.0129736,0.98719255)"><tspan
       sodipodi:role="line"
       id="tspan4566"
       x="25.524647"
       y="95.305084"
       style="stroke-width:2.43095446">P</tspan></text>
  <path
     style="fill:#00ff00;fill-opacity:1;stroke:#00ff00;stroke-width:2.31954408;stroke-miterlimit:4;stroke-dasharray:none;stroke-dashoffset:0.0472441;stroke-opacity:1"
     d="m 53.918773,117.25838 c -1.16891,-0.1012 -7.82098,-1.22352 -8.89884,-1.50139 -1.77944,-0.45873 -5.06869,-1.46222 -5.6257,-1.71629 -0.33754,-0.15396 -0.98194,-0.39616 -1.43199,-0.53822 -0.45006,-0.14205 -1.48144,-0.56718 -2.29197,-0.94472 -0.81052,-0.37755 -1.52784,-0.68645 -1.59404,-0.68645 -0.63367,0 -8.82347,-5.00078 -10.67981,-6.52122 -0.36025,-0.29506 -0.99916,-0.81264 -1.41981,-1.15019 -2.65743,-2.13243 -8.00644,-7.685656 -9.48865,-9.850924 -0.16591,-0.24237 -0.75194,-1.070882 -1.30228,-1.841138 C 10.132691,91.034089 8.7044291,88.733603 8.0935531,87.527382 7.8941181,87.133583 7.6737791,86.765355 7.6039121,86.709098 7.5340421,86.652838 7.2520381,86.1005 6.9772331,85.481673 6.7024271,84.862846 6.3902991,84.238283 6.2836141,84.093755 5.6303921,83.208819 3.2768671,76.683003 2.5487341,73.737737 2.2680071,72.602207 1.9566621,71.350939 1.8568571,70.95714 0.64557306,66.177805 0.53733306,54.816609 1.6453941,48.761198 c 1.267493,-6.926692 4.082627,-14.368208 7.4680785,-19.74109 0.8005,-1.270435 2.4560304,-3.781507 2.5625704,-3.886847 0.0569,-0.05626 0.37329,-0.470513 0.70309,-0.920569 2.67399,-3.649016 8.50687,-9.46268 11.77457,-11.735774 0.96601,-0.671982 3.89298,-2.6308039 5.11427,-3.4226379 2.88858,-1.872827 9.85205,-4.848216 13.80854,-5.9001854 4.75824,-1.2651437 6.99776,-1.6366075 11.86511,-1.9680377 4.64973,-0.31661189 12.22088,0.1064684 15.13825,0.8459332 0.45005,0.1140759 1.60076,0.3808931 2.55713,0.5929272 7.03026,1.5586611 15.45906,5.6039607 21.64751,10.3894646 12.229337,9.456898 20.096547,23.063603 22.265107,38.508523 0.55536,3.955368 0.50062,12.022427 -0.10828,15.95653 -1.85674,11.996503 -6.64336,22.088359 -14.73972,31.076447 -7.489237,8.314098 -18.921767,14.986218 -29.780617,17.380228 -4.50722,0.9937 -7.20086,1.29565 -12.06968,1.35299 -2.70033,0.0318 -5.36998,0.018 -5.93255,-0.0307 z M 45.019933,81.102301 V 68.13095 l 7.62027,-0.09137 c 8.35673,-0.100196 9.80906,-0.250548 13.54348,-1.402092 8.48808,-2.61738 14.41927,-9.188207 15.76683,-17.467148 0.61661,-3.788256 0.25621,-8.351901 -0.91244,-11.55408 -2.13287,-5.844216 -7.46432,-10.318124 -14.41293,-12.094685 -4.62353,-1.182102 -8.92417,-1.452201 -21.80978,-1.369751 l -9.51255,0.06087 -0.0517,34.930479 -0.0517,34.930479 h 4.91029 4.91029 z"
     id="path4576"
     inkscape:connector-curvature="0" />
  <path
     style="fill:#00ff00;fill-opacity:1;stroke:#00ff00;stroke-width:2.31954408;stroke-miterlimit:4;stroke-dasharray:none;stroke-dashoffset:0.0472441;stroke-opacity:1"
     d="M 45.429077,46.029449 V 32.088671 l 5.369985,0.0021 c 6.30327,0.0025 9.473319,0.241733 12.129123,0.915433 4.860964,1.233086 8.045437,4.16783 9.215393,8.492717 0.4952,1.830575 0.507869,5.950313 0.02391,7.773693 -0.643926,2.426043 -1.681792,4.215392 -3.499551,6.033453 -3.540898,3.541486 -6.541794,4.346112 -16.948302,4.544331 l -6.290554,0.119819 z"
     id="path4578"
     inkscape:connector-curvature="0" />
</svg>
